{
  "accessors": [
    {
      "bufferView": 2,
      "componentType": 5126,
      "count": 849,
      "max": [
        1.367539882659912,
        1.3675397634506226,
        19.736257553100586
      ],
      "min": [
        -1.367539882659912,
        -1.3675397634506226,
        11.100436210632324
      ],
      "type": "VEC3"
    },
    {
      "bufferView": 2,
      "byteOffset": 10188,
      "componentType": 5126,
      "count": 849,
      "max": [
        1.0,
        1.0,
        0.9650832414627075
      ],
      "min": [
        -1.0,
        -1.0,
        -1.0
      ],
      "type": "VEC3"
    },
    {
      "bufferView": 3,
      "componentType": 5126,
      "count": 849,
      "max": [
        1.0,
        1.0,
        0.9428317546844482,
        1.0
      ],
      "min": [
        -1.0,
        -1.0,
        -0.9486283659934998,
        1.0
      ],
      "type": "VEC4"
    },
    {
      "bufferView": 1,
      "componentType": 5126,
      "count": 849,
      "max": [
        0.9841625094413757,
        0.9122428297996521
      ],
      "min": [
        0.015837443992495537,
        0.015837443992495537
      ],
      "type": "VEC2"
    },
    {
      "bufferView": 0,
      "componentType": 5125,
      "count": 3372,
      "type": "SCALAR"
    },
    {
      "bufferView": 2,
      "byteOffset": 20376,
      "componentType": 5126,
      "count": 110,
      "max": [
        1.0697498321533203,
        0.2111194133758545,
        11.878925323486328
      ],
      "min": [
        -1.0697498321533203,
        -0.21111959218978882,
        8.631290435791016
      ],
      "type": "VEC3"
    },
    {
      "bufferView": 2,
      "byteOffset": 21696,
      "componentType": 5126,
      "count": 110,
      "max": [
        1.0,
        1.0,
        0.0
      ],
      "min": [
        -1.0,
        -1.0,
        -1.0
      ],
      "type": "VEC3"
    },
    {
      "bufferView": 3,
      "byteOffset": 13584,
      "componentType": 5126,
      "count": 110,
      "max": [
        1.0,
        1.0,
        0.8689559102058411,
        1.0
      ],
      "min": [
        -1.0,
        -0.9992772936820984,
        -0.8689559102058411,
        1.0
      ],
      "type": "VEC4"
    },
    {
      "bufferView": 1,
      "byteOffset": 6792,
      "componentType": 5126,
      "count": 110,
      "max": [
        0.9916982650756836,
        0.6825065016746521
      ],
      "min": [
        0.008301768451929092,
        0.008301768451929092
      ],
      "type": "VEC2"
    },
    {
      "bufferView": 0,
      "byteOffset": 13488,
      "componentType": 5125,
      "count": 384,
      "type": "SCALAR"
    },
    {
      "bufferView": 2,
      "byteOffset": 23016,
      "componentType": 5126,
      "count": 244,
      "max": [
        4.948786735534668,
        0.5080502033233643,
        12.536541938781738
      ],
      "min": [
        -4.948786735534668,
        -0.5080502033233643,
        8.857647895812988
      ],
      "type": "VEC3"
    },
    {
      "bufferView": 2,
      "byteOffset": 25944,
      "componentType": 5126,
      "count": 244,
      "max": [
        0.9864433407783508,
        0.9992886781692505,
        0.9673054814338684
      ],
      "min": [
        -0.9864433407783508,
        -0.9992886781692505,
        -0.9992247819900513
      ],
      "type": "VEC3"
    },
    {
      "bufferView": 3,
      "byteOffset": 15344,
      "componentType": 5126,
      "count": 244,
      "max": [
        0.9957126379013062,
        0.9912536144256592,
        0.949179470539093,
        1.0
      ],
      "min": [
        -0.5271824598312378,
        -0.9626985192298889,
        -0.9304605722427368,
        1.0
      ],
      "type": "VEC4"
    },
    {
      "bufferView": 1,
      "byteOffset": 7672,
      "componentType": 5126,
      "count": 244,
      "max": [
        0.9902372360229492,
        0.9229872226715088
      ],
      "min": [
        0.0097627192735672,
        0.0097627192735672
      ],
      "type": "VEC2"
    },
    {
      "bufferView": 0,
      "byteOffset": 15024,
      "componentType": 5125,
      "count": 1056,
      "type": "SCALAR"
    },
    {
      "bufferView": 2,
      "byteOffset": 28872,
      "componentType": 5126,
      "count": 589,
      "max": [
        1.551043152809143,
        0.1986633837223053,
        9.8651704788208
      ],
      "min": [
        -1.551043152809143,
        -0.1986633837223053,
        -20.529808044433594
      ],
      "type": "VEC3"
    },
    {
      "bufferView": 2,
      "byteOffset": 35940,
      "componentType": 5126,
      "count": 589,
      "max": [
        1.0,
        1.0,
        0.7168656587600708
      ],
      "min": [
        -1.0,
        -1.0,
        -1.0
      ],
      "type": "VEC3"
    },
    {
      "bufferView": 3,
      "byteOffset": 19248,
      "componentType": 5126,
      "count": 589,
      "max": [
        1.0,
        1.0,
        0.7951433658599854,
        1.0
      ],
      "min": [
        -1.0,
        -1.0,
        -0.7951595187187195,
        1.0
      ],
      "type": "VEC4"
    },
    {
      "bufferView": 1,
      "byteOffset": 9624,
      "componentType": 5126,
      "count": 589,
      "max": [
        0.89527827501297,
        0.990921676158905
      ],
      "min": [
        0.00907832570374012,
        0.00907832570374012
      ],
      "type": "VEC2"
    },
    {
      "bufferView": 0,
      "byteOffset": 19248,
      "componentType": 5125,
      "count": 2784,
      "type": "SCALAR"
    },
    {
      "bufferView": 2,
      "byteOffset": 43008,
      "componentType": 5126,
      "count": 180,
      "max": [
        0.6868951320648193,
        0.6868950724601746,
        20.42595672607422
      ],
      "min": [
        -0.6868952512741089,
        -0.6868953108787537,
        9.3673677444458
      ],
      "type": "VEC3"
    },
    {
      "bufferView": 2,
      "byteOffset": 45168,
      "componentType": 5126,
      "count": 180,
      "max": [
        0.9975603222846985,
        0.9975409507751465,
        1.0
      ],
      "min": [
        -0.9975603222846985,
        -0.9975409507751465,
        -0.8751143217086792
      ],
      "type": "VEC3"
    },
    {
      "bufferView": 3,
      "byteOffset": 28672,
      "componentType": 5126,
      "count": 180,
      "max": [
        0.9996061325073242,
        0.9983578324317932,
        0.7736598253250122,
        1.0
      ],
      "min": [
        -0.9995905756950378,
        -0.997920572757721,
        -0.9168218970298767,
        1.0
      ],
      "type": "VEC4"
    },
    {
      "bufferView": 1,
      "byteOffset": 14336,
      "componentType": 5126,
      "count": 180,
      "max": [
        0.7579005360603333,
        0.9911922812461853
      ],
      "min": [
        0.008807714097201824,
        0.008807714097201824
      ],
      "type": "VEC2"
    },
    {
      "bufferView": 0,
      "byteOffset": 30384,
      "componentType": 5125,
      "count": 828,
      "type": "SCALAR"
    }
  ],
  "asset": {
    "extras": {
      "author": "Voldepreuss (https://sketchfab.com/Voldepreuss)",
      "license": "CC-BY-4.0 (http://creativecommons.org/licenses/by/4.0/)",
      "source": "https://sketchfab.com/3d-models/legend-of-zelda-master-sword-cb7f91aa8594406ea6fc7cb72846743b",
      "title": "Legend of Zelda Master Sword"
    },
    "generator": "Sketchfab-12.67.0",
    "version": "2.0"
  },
  "bufferViews": [
    {
      "buffer": 0,
      "byteLength": 33696,
      "name": "floatBufferViews",
      "target": 34963
    },
    {
      "buffer": 0,
      "byteLength": 15776,
      "byteOffset": 33696,
      "byteStride": 8,
      "name": "floatBufferViews",
      "target": 34962
    },
    {
      "buffer": 0,
      "byteLength": 47328,
      "byteOffset": 49472,
      "byteStride": 12,
      "name": "floatBufferViews",
      "target": 34962
    },
    {
      "buffer": 0,
      "byteLength": 31552,
      "byteOffset": 96800,
      "byteStride": 16,
      "name": "floatBufferViews",
      "target": 34962
    }
  ],
  "buffers": [
    {
      "byteLength": 128352,
      "uri": "scene.bin"
    }
  ],
  "images": [
    {
      "uri": "textures/Handle_low_baseColor.png"
    },
    {
      "uri": "textures/Handle_low_metallicRoughness.png"
    },
    {
      "uri": "textures/Handle_low_normal.png"
    },
    {
      "uri": "textures/Hilt_low_baseColor.png"
    },
    {
      "uri": "textures/Hilt_low_metallicRoughness.png"
    },
    {
      "uri": "textures/Hilt_low_normal.png"
    },
    {
      "uri": "textures/Wings_low_baseColor.png"
    },
    {
      "uri": "textures/Wings_low_metallicRoughness.png"
    },
    {
      "uri": "textures/Wings_low_normal.png"
    },
    {
      "uri": "textures/Blade_low_baseColor.png"
    },
    {
      "uri": "textures/Blade_low_metallicRoughness.png"
    },
    {
      "uri": "textures/Blade_low_normal.png"
    },
    {
      "uri": "textures/Diamond_low_baseColor.png"
    },
    {
      "uri": "textures/Diamond_low_metallicRoughness.png"
    },
    {
      "uri": "textures/Diamond_low_normal.png"
    }
  ],
  "materials": [
    {
      "name": "Handle_low",
      "normalTexture": {
        "index": 2
      },
      "occlusionTexture": {
        "index": 1
      },
      "pbrMetallicRoughness": {
        "baseColorTexture": {
          "index": 0
        },
        "metallicRoughnessTexture": {
          "index": 1
        }
      }
    },
    {
      "name": "Hilt_low",
      "normalTexture": {
        "index": 5
      },
      "occlusionTexture": {
        "index": 4
      },
      "pbrMetallicRoughness": {
        "baseColorTexture": {
          "index": 3
        },
        "metallicRoughnessTexture": {
          "index": 4
        }
      }
    },
    {
      "name": "Wings_low",
      "normalTexture": {
        "index": 8
      },
      "occlusionTexture": {
        "index": 7
      },
      "pbrMetallicRoughness": {
        "baseColorTexture": {
          "index": 6
        },
        "metallicRoughnessTexture": {
          "index": 7
        }
      }
    },
    {
      "name": "Blade_low",
      "normalTexture": {
        "index": 11
      },
      "occlusionTexture": {
        "index": 10
      },
      "pbrMetallicRoughness": {
        "baseColorTexture": {
          "index": 9
        },
        "metallicRoughnessTexture": {
          "index": 10
        }
      }
    },
    {
      "name": "Diamond_low",
      "normalTexture": {
        "index": 14
      },
      "occlusionTexture": {
        "index": 13
      },
      "pbrMetallicRoughness": {
        "baseColorTexture": {
          "index": 12
        },
        "metallicRoughnessTexture": {
          "index": 13
        }
      }
    }
  ],
  "meshes": [
    {
      "name": "Handle_low_Handle_low_0",
      "primitives": [
        {
          "attributes": {
            "NORMAL": 1,
            "POSITION": 0,
            "TANGENT": 2,
            "TEXCOORD_0": 3
          },
          "indices": 4,
          "material": 0,
          "mode": 4
        }
      ]
    },
    {
      "name": "Hilt_low_Hilt_low_0",
      "primitives": [
        {
          "attributes": {
            "NORMAL": 6,
            "POSITION": 5,
            "TANGENT": 7,
            "TEXCOORD_0": 8
          },
          "indices": 9,
          "material": 1,
          "mode": 4
        }
      ]
    },
    {
      "name": "Wings_low_Wings_low_0",
      "primitives": [
        {
          "attributes": {
            "NORMAL": 11,
            "POSITION": 10,
            "TANGENT": 12,
            "TEXCOORD_0": 13
          },
          "indices": 14,
          "material": 2,
          "mode": 4
        }
      ]
    },
    {
      "name": "Blade_low_Blade_low_0",
      "primitives": [
        {
          "attributes": {
            "NORMAL": 16,
            "POSITION": 15,
            "TANGENT": 17,
            "TEXCOORD_0": 18
          },
          "indices": 19,
          "material": 3,
          "mode": 4
        }
      ]
    },
    {
      "name": "Diamond_low_Diamond_low_0",
      "primitives": [
        {
          "attributes": {
            "NORMAL": 21,
            "POSITION": 20,
            "TANGENT": 22,
            "TEXCOORD_0": 23
          },
          "indices": 24,
          "material": 4,
          "mode": 4
        }
      ]
    }
  ],
  "nodes": [
    {
      "children": [
        1
      ],
      "matrix": [
        0.0003057557041756809,
        0.0,
        0.0,
        0.0,
        0.0,
        6.78914045372638e-20,
        -0.0003057557041756809,
        0.0,
        0.0,
        0.0003057557041756809,
        6.78914045372638e-20,
        0.0,
        0.0,
        0.0,
        0.0,
        1.0
      ],
      "name": "Sketchfab_model"
    },
    {
      "children": [
        2
      ],
      "matrix": [
        1.0,
        0.0,
        0.0,
        0.0,
        0.0,
        0.0,
        1.0,
        0.0,
        0.0,
        -1.0,
        0.0,
        0.0,
        0.0,
        0.0,
        0.0,
        1.0
      ],
      "name": "196fc25a7d574be69cfe1daeeafb57b0.fbx"
    },
    {
      "children": [
        3,
        5,
        7,
        9,
        11
      ],
      "name": "RootNode"
    },
    {
      "children": [
        4
      ],
      "matrix": [
        100.0,
        0.0,
        0.0,
        0.0,
        0.0,
        -1.629206793918314e-05,
        -99.99999999999868,
        0.0,
        0.0,
        99.99999999999868,
        -1.629206793918314e-05,
        0.0,
        0.0,
        0.0,
        0.0,
        1.0
      ],
      "name": "Handle_low"
    },
    {
      "mesh": 0,
      "name": "Handle_low_Handle_low_0"
    },
    {
      "children": [
        6
      ],
      "matrix": [
        100.0,
        0.0,
        0.0,
        0.0,
        0.0,
        -1.629206793918314e-05,
        -99.99999999999868,
        0.0,
        0.0,
        99.99999999999868,
        -1.629206793918314e-05,
        0.0,
        0.0,
        0.0,
        0.0,
        1.0
      ],
      "name": "Hilt_low"
    },
    {
      "mesh": 1,
      "name": "Hilt_low_Hilt_low_0"
    },
    {
      "children": [
        8
      ],
      "matrix": [
        100.0,
        0.0,
        0.0,
        0.0,
        0.0,
        -1.629206793918314e-05,
        -99.99999999999868,
        0.0,
        0.0,
        99.99999999999868,
        -1.629206793918314e-05,
        0.0,
        0.0,
        0.0,
        0.0,
        1.0
      ],
      "name": "Wings_low"
    },
    {
      "mesh": 2,
      "name": "Wings_low_Wings_low_0"
    },
    {
      "children": [
        10
      ],
      "matrix": [
        100.0,
        0.0,
        0.0,
        0.0,
        0.0,
        -1.629206793918314e-05,
        -99.99999999999868,
        0.0,
        0.0,
        99.99999999999868,
        -1.629206793918314e-05,
        0.0,
        0.0,
        0.0,
        0.0,
        1.0
      ],
      "name": "Blade_low"
    },
    {
      "mesh": 3,
      "name": "Blade_low_Blade_low_0"
    },
    {
      "children": [
        12
      ],
      "matrix": [
        100.0,
        0.0,
        0.0,
        0.0,
        0.0,
        -1.629206793918314e-05,
        -99.99999999999868,
        0.0,
        0.0,
        99.99999999999868,
        -1.629206793918314e-05,
        0.0,
        0.0,
        0.0,
        0.0,
        1.0
      ],
      "name": "Diamond_low"
    },
    {
      "mesh": 4,
      "name": "Diamond_low_Diamond_low_0"
    }
  ],
  "samplers": [
    {
      "magFilter": 9729,
      "minFilter": 9987,
      "wrapS": 10497,
      "wrapT": 10497
    }
  ],
  "scene": 0,
  "scenes": [
    {
      "name": "Sketchfab_Scene",
      "nodes": [
        0
      ]
    }
  ],
  "textures": [
    {
      "sampler": 0,
      "source": 0
    },
    {
      "sampler": 0,
      "source": 1
    },
    {
      "sampler": 0,
      "source": 2
    },
    {
      "sampler": 0,
      "source": 3
    },
    {
      "sampler": 0,
      "source": 4
    },
    {
      "sampler": 0,
      "source": 5
    },
    {
      "sampler": 0,
      "source": 6
    },
    {
      "sampler": 0,
      "source": 7
    },
    {
      "sampler": 0,
      "source": 8
    },
    {
      "sampler": 0,
      "source": 9
    },
    {
      "sampler": 0,
      "source": 10
    },
    {
      "sampler": 0,
      "source": 11
    },
    {
      "sampler": 0,
      "source": 12
    },
    {
      "sampler": 0,
      "source": 13
    },
    {
      "sampler": 0,
      "source": 14
    }
  ]
}
